<svg width="17" height="16" viewBox="0 0 17 16" fill="none" xmlns="http://www.w3.org/2000/svg">
<g clip-path="url(#clip0_1306_2941)">
<rect x="-0.285847" y="0.0765925" width="0.418509" height="10.0442" rx="0.209255" transform="matrix(-0.866025 -0.5 -0.5 0.866025 8.7588 6.2189)" fill="#C4C4C4" stroke="black" stroke-width="0.418509"/>
<path fill-rule="evenodd" clip-rule="evenodd" d="M11.8141 1.04385L11.3502 1.2019C10.4457 1.51007 9.00919 2.13001 7.60872 2.99741C6.21611 3.85994 4.81163 4.99611 4.0279 6.35356C2.46165 9.06638 3.47162 11.093 4.28677 11.8094L4.83931 11.1807C4.31868 10.7231 3.38946 9.1334 4.75278 6.77207C5.43384 5.59244 6.69947 4.54513 8.04945 3.709C9.16492 3.01811 10.3055 2.49119 11.147 2.16664C11.3466 3.70502 11.4923 6.65197 10.8502 9.21703C10.514 10.5599 9.71645 11.3106 8.85366 11.7191C7.97414 12.1355 7.02052 12.1968 6.4248 12.1258L6.32567 12.9569C7.04862 13.0431 8.16552 12.9709 9.21182 12.4756C10.2748 11.9723 11.2584 11.033 11.6621 9.4203C12.4214 6.38743 12.1351 2.90063 11.8976 1.52677L11.8141 1.04385Z" fill="black"/>
</g>
<defs>
<clipPath id="clip0_1306_2941">
<rect width="16" height="16" fill="white" transform="translate(0.5)"/>
</clipPath>
</defs>
</svg>
