<svg width="16" height="16" viewBox="0 0 16 16" fill="none" xmlns="http://www.w3.org/2000/svg">
<path fill-rule="evenodd" clip-rule="evenodd" d="M12.9966 6.7001C12.9153 5.01735 11.5463 3.38 9.38991 3.71055C8.90056 3.78557 8.50139 4.07175 8.1329 4.51016C7.76626 4.94636 7.45675 5.50009 7.13162 6.08176L7.11435 6.11267C6.79162 6.68997 6.44945 7.29877 6.03285 7.75918C5.60809 8.22861 5.07615 8.57704 4.37391 8.57704C3.06602 8.57704 2.18735 8.08762 1.66706 7.56937C1.65707 8.15661 1.78037 8.83907 2.15019 9.47253C2.69861 10.4119 3.82249 11.2998 6.01271 11.5831C8.7566 11.938 10.5111 11.117 11.5725 10.0294C12.6505 8.9248 13.0364 7.52366 12.9966 6.7001ZM9.2889 3.05162C11.9207 2.64819 13.5664 4.68075 13.6625 6.66792C13.7113 7.67931 13.2549 9.25998 12.0496 10.495C10.8278 11.7469 8.85817 12.6233 5.9272 12.2442C3.57754 11.9403 2.24823 10.9627 1.57449 9.80864C0.910092 8.67062 0.915967 7.41623 1.12494 6.60122L1.37912 5.60991L1.75751 6.56077C1.91469 6.95574 2.66813 7.91041 4.37391 7.91041C4.82436 7.91041 5.1902 7.69688 5.53853 7.31191C5.89502 6.91792 6.20125 6.37987 6.53246 5.78738C6.54315 5.76827 6.55386 5.74909 6.5646 5.72987C6.87791 5.16911 7.21444 4.56682 7.62258 4.08123C8.04934 3.57349 8.5812 3.1601 9.2889 3.05162Z" fill="black"/>
<path fill-rule="evenodd" clip-rule="evenodd" d="M6.6654 13.9999L6.6654 12L7.33203 12L7.33203 13.9999L6.6654 13.9999Z" fill="black"/>
<path fill-rule="evenodd" clip-rule="evenodd" d="M8.00133 13.9999L8.00133 12L8.66797 12L8.66797 13.9999L8.00133 13.9999Z" fill="black"/>
<path fill-rule="evenodd" clip-rule="evenodd" d="M14.332 7.3346H13.332V6.66797H14.332V7.3346Z" fill="black"/>
<path d="M12.0012 6.66663C12.0012 7.03481 11.7028 7.33327 11.3346 7.33327C10.9664 7.33327 10.668 7.03481 10.668 6.66663C10.668 6.29846 10.9664 6 11.3346 6C11.7028 6 12.0012 6.29846 12.0012 6.66663Z" fill="black"/>
</svg>
