<svg width="16" height="16" viewBox="0 0 16 16" fill="none" xmlns="http://www.w3.org/2000/svg">
<path fill-rule="evenodd" clip-rule="evenodd" d="M4.36589 5.95833C5.4105 5.95833 6.14714 5.19098 6.14714 4.375C6.14714 3.55902 5.4105 2.79167 4.36589 2.79167C3.32127 2.79167 2.58464 3.55902 2.58464 4.375C2.58464 5.19098 3.32127 5.95833 4.36589 5.95833ZM4.36589 6.75C5.78687 6.75 6.9388 5.68668 6.9388 4.375C6.9388 3.06332 5.78687 2 4.36589 2C2.9449 2 1.79297 3.06332 1.79297 4.375C1.79297 5.68668 2.9449 6.75 4.36589 6.75Z" fill="black"/>
<path fill-rule="evenodd" clip-rule="evenodd" d="M11.8854 5.95833C12.93 5.95833 13.6667 5.19098 13.6667 4.375C13.6667 3.55902 12.93 2.79167 11.8854 2.79167C10.8408 2.79167 10.1042 3.55902 10.1042 4.375C10.1042 5.19098 10.8408 5.95833 11.8854 5.95833ZM11.8854 6.75C13.3064 6.75 14.4583 5.68668 14.4583 4.375C14.4583 3.06332 13.3064 2 11.8854 2C10.4644 2 9.3125 3.06332 9.3125 4.375C9.3125 5.68668 10.4644 6.75 11.8854 6.75Z" fill="black"/>
<path fill-rule="evenodd" clip-rule="evenodd" d="M4.36458 7.14518C2.97826 7.14518 1.79167 8.33413 1.79167 9.88003V13.8743H6.9375V9.88003C6.9375 8.33413 5.75091 7.14518 4.36458 7.14518ZM7.72917 9.88003C7.72917 7.93239 6.22279 6.35352 4.36458 6.35352C2.50638 6.35352 1 7.93239 1 9.88003V14.666H7.72917V9.88003Z" fill="black"/>
<path fill-rule="evenodd" clip-rule="evenodd" d="M11.8841 7.14518C10.4978 7.14518 9.3112 8.33413 9.3112 9.88003V13.8743H14.457V9.88003C14.457 8.33413 13.2704 7.14518 11.8841 7.14518ZM15.2487 9.88003C15.2487 7.93239 13.7423 6.35352 11.8841 6.35352C10.0259 6.35352 8.51953 7.93239 8.51953 9.88003V14.666H15.2487V9.88003Z" fill="black"/>
</svg>
