<svg width="16" height="16" viewBox="0 0 16 16" fill="none" xmlns="http://www.w3.org/2000/svg">
<g clip-path="url(#clip0_1306_3056)">
<path fill-rule="evenodd" clip-rule="evenodd" d="M6.3868 2.47437C6.62656 2.08219 7.11886 1.52585 7.79021 1.17047C8.44786 0.822332 9.2731 0.666949 10.2316 1.04321C11.2267 1.43386 11.6564 1.97758 11.8285 2.45298C12.0069 2.94548 11.9305 3.42373 11.814 3.69796L11.6557 4.07086L12.0257 4.23589C12.3128 4.36399 12.7628 4.6439 13.1353 5.04935C13.506 5.45281 13.7738 5.95039 13.7738 6.52579C13.7738 7.33154 13.5274 8.00189 13.1952 8.46212C12.8527 8.93664 12.4638 9.13546 12.1937 9.13546H11.618L11.8031 9.68063C11.9328 10.0622 11.9712 10.5997 11.7448 11.0184C11.5392 11.3987 11.0462 11.8021 9.83887 11.8021V12.6271C11.24 12.6271 12.0754 12.1416 12.4706 11.4108C12.7454 10.9025 12.7709 10.3385 12.6968 9.87379C13.1427 9.72089 13.5516 9.37805 13.8642 8.94495C14.3018 8.33853 14.5988 7.4978 14.5988 6.52579C14.5988 5.679 14.2024 4.99142 13.7429 4.49119C13.4063 4.12483 13.0218 3.84279 12.692 3.65227C12.7885 3.23826 12.7995 2.7112 12.6042 2.17208C12.3386 1.43862 11.7116 0.737909 10.533 0.275243C9.31778 -0.20182 8.24102 -0.0016536 7.40423 0.441312C6.72302 0.801916 6.19835 1.32321 5.86556 1.77379C5.33514 1.63174 4.62406 1.55915 3.91289 1.72402C3.02728 1.92932 2.15742 2.50194 1.6677 3.70348C1.17473 4.91299 1.42024 6.00973 1.90903 6.86399C2.29363 7.53614 2.83326 8.0696 3.30472 8.4227C2.94776 9.12525 2.69207 10.3388 3.51992 11.5575C4.04044 12.3238 4.82892 12.6453 5.5563 12.7475C6.27882 12.8491 6.98264 12.7422 7.42212 12.6095L7.18362 11.8197C6.83815 11.924 6.25585 12.0127 5.67111 11.9305C5.09125 11.8491 4.55133 11.6076 4.20237 11.0939C3.46469 10.008 3.89524 8.93828 4.1889 8.55402L4.46642 8.19088L4.07683 7.95191C3.6403 7.68416 3.02491 7.15297 2.62511 6.45426C2.23234 5.7678 2.05518 4.93865 2.43169 4.01486C2.81146 3.08311 3.45113 2.67796 4.09921 2.52772C4.77068 2.37205 5.46645 2.48956 5.89239 2.64632L6.21017 2.76327L6.3868 2.47437ZM7.99871 16.5004L7.99871 5.77517H8.82373V9.14603L10.7154 7.25434L11.2988 7.83771L8.82374 10.3128L8.82373 10.3127L8.82373 16.5004H7.99871Z" fill="black"/>
</g>
<defs>
<clipPath id="clip0_1306_3056">
<rect width="16" height="16" fill="white"/>
</clipPath>
</defs>
</svg>
