<svg width="38" height="38" viewBox="0 0 38 38" fill="none" xmlns="http://www.w3.org/2000/svg">
<path d="M34.4704 10.8703L34.4704 10.8703C34.1066 11.0423 33.9512 11.4761 34.1244 11.8394L34.1244 11.8394C35.1974 14.0883 35.7415 16.5007 35.7415 19.011C35.7415 23.4812 33.9937 27.683 30.819 30.8441C27.6444 34.0053 23.4243 35.746 18.9342 35.746C16.271 35.746 13.7253 35.1443 11.3664 33.9578C9.62522 33.0819 8.03261 31.8924 6.68918 30.4725L8.05672 30.9264C8.43804 31.053 8.85123 30.848 8.97888 30.4667C9.10666 30.085 8.89917 29.6735 8.51744 29.5468L4.75962 28.2995L4.75957 28.2995C4.52028 28.2201 4.25635 28.2695 4.06226 28.4309C3.86811 28.5923 3.77157 28.8425 3.80734 29.0922L3.80734 29.0922L4.43365 33.4577L4.43365 33.4578C4.48584 33.8211 4.79834 34.0819 5.15496 34.0819C5.18931 34.0819 5.22383 34.0794 5.25841 34.0746L5.25865 34.0745C5.65672 34.0179 5.93472 33.6502 5.87755 33.2519L5.62045 31.4599C7.08127 33.0062 8.81333 34.3022 10.7094 35.256C13.274 36.5459 16.0417 37.2 18.9342 37.2C23.8125 37.2 28.4 35.3079 31.8498 31.8729L31.7087 31.7312L31.8498 31.8729C35.2996 28.4377 37.2 23.8694 37.2 19.011C37.2 16.2839 36.6083 13.6604 35.4416 11.2149C35.2685 10.8519 34.8336 10.6986 34.4704 10.8703Z" fill="black" stroke="black" stroke-width="0.4"/>
<path d="M3.52967 27.1296C3.42902 27.1773 3.32238 27.2 3.21735 27.2C2.9455 27.2 2.68357 27.0475 2.55839 26.7851C1.39166 24.3395 0.8 21.716 0.8 18.9889C0.8 14.1306 2.70047 9.56225 6.15015 6.12707L6.15016 6.12707C9.59996 2.69207 14.1874 0.8 19.0657 0.8C24.1623 0.8 28.9317 2.87283 32.379 6.53561L32.1225 4.74812C32.0654 4.3498 32.3434 3.9821 32.7414 3.92547L32.7415 3.92546C33.1389 3.86904 33.5092 4.14396 33.5664 4.54226L33.3715 4.57022L33.5664 4.54226L34.1927 8.90779C34.2284 9.15753 34.1319 9.40774 33.9377 9.56911C33.8046 9.67975 33.6387 9.73772 33.4706 9.73772C33.3933 9.73772 33.3156 9.72543 33.2404 9.70051L33.2403 9.70049L29.4825 8.45321C29.1008 8.3265 28.8933 7.91498 29.0211 7.53325C29.1487 7.15191 29.5619 6.94708 29.9432 7.07356L29.9432 7.07357L31.3121 7.52793C28.1403 4.15999 23.7545 2.25404 19.0657 2.25404C14.5757 2.25404 10.3556 3.99469 7.18092 7.15586C4.00629 10.317 2.25854 14.5187 2.25854 18.9889C2.25854 21.4993 2.80255 23.9117 3.87554 26.1605L3.87556 26.1605C4.0488 26.5238 3.89328 26.9576 3.52967 27.1296ZM3.52967 27.1296C3.52965 27.1296 3.52963 27.1296 3.52961 27.1296L3.44409 26.9488L3.52967 27.1296Z" fill="black" stroke="black" stroke-width="0.4"/>
</svg>
